<svg xmlns="http://www.w3.org/2000/svg" xmlns:xlink="http://www.w3.org/1999/xlink" xmlns:lucid="lucid" width="761.05" height="1081.31"><g transform="translate(379.3478818424547 240.80719472840167)" lucid:page-tab-id="0_0"><path d="M41.2-200.3c0 11.04-8.95 20-20 20s-20-8.96-20-20c0-11.05 8.95-20 20-20s20 8.95 20 20z" stroke="#666"/><path d="M21.2-179.3v32.6" stroke="#333" fill="none"/><path d="M21.18-179.8l.52-.02v.53h-1v-.57z" stroke="#333" stroke-width=".05" fill="#333"/><path d="M21.2-131.93l-4.63-14.26h9.27z" stroke="#333" fill="#333"/><path d="M-81.6-130.3c-8.84 0-16 7.16-16 16v48c0 8.83 7.16 16 16 16H124c8.84 0 16-7.17 16-16v-48c0-8.84-7.16-16-16-16z" stroke="#000" stroke-opacity="0" fill="#00b098"/><use xlink:href="#a" transform="matrix(1,0,0,1,-89.59999999999991,-122.30719472840167) translate(33.123456790123456 26.488888888888887)"/><use xlink:href="#b" transform="matrix(1,0,0,1,-89.59999999999991,-122.30719472840167) translate(46.90123456790123 26.488888888888887)"/><use xlink:href="#c" transform="matrix(1,0,0,1,-89.59999999999991,-122.30719472840167) translate(103.09876543209876 26.488888888888887)"/><use xlink:href="#d" transform="matrix(1,0,0,1,-89.59999999999991,-122.30719472840167) translate(181.07407407407408 26.488888888888887)"/><use xlink:href="#e" transform="matrix(1,0,0,1,-89.59999999999991,-122.30719472840167) translate(37.56790123456791 47.822222222222216)"/><use xlink:href="#f" transform="matrix(1,0,0,1,-89.59999999999991,-122.30719472840167) translate(107.64197530864199 47.822222222222216)"/><use xlink:href="#g" transform="matrix(1,0,0,1,-89.59999999999991,-122.30719472840167) translate(126.35802469135804 47.822222222222216)"/><path d="M21.2-49.8V-15.54" stroke="#333" fill="none"/><path d="M21.7-49.8h-1v-.5h1z" stroke="#333" stroke-width=".05" fill="#333"/><path d="M21.2-.78l-4.63-14.26h9.27z" stroke="#333" fill="#333"/><path d="M-302.8 79.7c-8.84 0-16 7.16-16 16v48c0 8.83 7.16 16 16 16h128c8.84 0 16-7.17 16-16v-48c0-8.84-7.16-16-16-16z" stroke="#000" stroke-opacity="0" fill="#00c2a8"/><use xlink:href="#h" transform="matrix(1,0,0,1,-310.79999999999995,87.69280527159833) translate(18.34567901234568 26.488888888888887)"/><use xlink:href="#i" transform="matrix(1,0,0,1,-310.79999999999995,87.69280527159833) translate(54.839506172839506 26.488888888888887)"/><use xlink:href="#j" transform="matrix(1,0,0,1,-310.79999999999995,87.69280527159833) translate(67.58024691358025 26.488888888888887)"/><use xlink:href="#k" transform="matrix(1,0,0,1,-310.79999999999995,87.69280527159833) translate(23.16049382716049 47.822222222222216)"/><use xlink:href="#l" transform="matrix(1,0,0,1,-310.79999999999995,87.69280527159833) translate(51.75308641975309 47.822222222222216)"/><path d="M217.2 79.7c-8.84 0-16 7.16-16 16v48c0 8.83 7.16 16 16 16h128c8.84 0 16-7.17 16-16v-48c0-8.84-7.16-16-16-16z" stroke="#000" stroke-opacity="0" fill="#00c2a8"/><use xlink:href="#m" transform="matrix(1,0,0,1,209.20000000000005,87.69280527159833) translate(13.777777777777782 26.488888888888887)"/><use xlink:href="#n" transform="matrix(1,0,0,1,209.20000000000005,87.69280527159833) translate(57.13580246913581 26.488888888888887)"/><use xlink:href="#o" transform="matrix(1,0,0,1,209.20000000000005,87.69280527159833) translate(81.82716049382717 26.488888888888887)"/><use xlink:href="#g" transform="matrix(1,0,0,1,209.20000000000005,87.69280527159833) translate(42.96296296296296 47.822222222222216)"/><path d="M-238.8 160.2v22.48" stroke="#333" fill="none"/><path d="M-238.3 160.2h-1v-.5h1z" stroke="#333" stroke-width=".05" fill="#333"/><path d="M-238.8 197.45l-4.63-14.27h9.27z" stroke="#333" fill="#333"/><path d="M-342.85 380c-8.83 0-16 7.16-16 16v48c0 8.84 7.17 16 16 16h205.6c8.84 0 16-7.16 16-16v-48c0-8.84-7.16-16-16-16z" stroke="#000" stroke-opacity="0" fill="#77e5d7"/><use xlink:href="#p" transform="matrix(1,0,0,1,-350.8478818424547,388) translate(33.074074074074076 26.488888888888887)"/><use xlink:href="#q" transform="matrix(1,0,0,1,-350.8478818424547,388) translate(107.0493827160494 26.488888888888887)"/><use xlink:href="#r" transform="matrix(1,0,0,1,-350.8478818424547,388) translate(125.76543209876544 26.488888888888887)"/><use xlink:href="#s" transform="matrix(1,0,0,1,-350.8478818424547,388) translate(28.481481481481477 47.822222222222216)"/><use xlink:href="#t" transform="matrix(1,0,0,1,-350.8478818424547,388) translate(123.19753086419753 47.822222222222216)"/><path d="M-240.05 460.5V528a12 12 0 0 0 12 12h114.07" stroke="#333" fill="none"/><path d="M-239.55 460.5h-1v-.5h1z" stroke="#333" stroke-width=".05" fill="#333"/><path d="M-99.22 540l-14.26 4.63v-9.26z" stroke="#333" fill="#333"/><path d="M281.2 160.2v133.1" stroke="#333" fill="none"/><path d="M281.7 160.2h-1v-.5h1z" stroke="#333" stroke-width=".05" fill="#333"/><path d="M281.2 308.07l-4.63-14.26h9.26z" stroke="#333" fill="#333"/><path d="M217.2 309.7c-8.84 0-16 7.16-16 16v48c0 8.83 7.16 16 16 16h128c8.84 0 16-7.17 16-16v-48c0-8.84-7.16-16-16-16z" stroke="#000" stroke-opacity="0" fill="#77e5d7"/><use xlink:href="#p" transform="matrix(1,0,0,1,209.20000000000005,317.69280527159833) translate(25.1358024691358 17.422222222222224)"/><use xlink:href="#u" transform="matrix(1,0,0,1,209.20000000000005,317.69280527159833) translate(99.11111111111111 17.422222222222224)"/><use xlink:href="#v" transform="matrix(1,0,0,1,209.20000000000005,317.69280527159833) translate(33.061728395061735 38.75555555555556)"/><use xlink:href="#w" transform="matrix(1,0,0,1,209.20000000000005,317.69280527159833) translate(87.28395061728396 38.75555555555556)"/><use xlink:href="#x" transform="matrix(1,0,0,1,209.20000000000005,317.69280527159833) translate(39.4320987654321 60.088888888888896)"/><path d="M281.2 390.2V528a12 12 0 0 1-12 12H156.38" stroke="#333" fill="none"/><path d="M281.7 390.2h-1v-.5h1z" stroke="#333" stroke-width=".05" fill="#333"/><path d="M141.62 540l14.26-4.63v9.26z" stroke="#333" fill="#333"/><path d="M-81.6 500c-8.84 0-16 7.16-16 16v48c0 8.84 7.16 16 16 16H124c8.84 0 16-7.16 16-16v-48c0-8.84-7.16-16-16-16z" stroke="#000" stroke-opacity="0" fill="#b8f5ed"/><use xlink:href="#y" transform="matrix(1,0,0,1,-89.59999999999991,508) translate(31.59259259259259 17.422222222222224)"/><use xlink:href="#z" transform="matrix(1,0,0,1,-89.59999999999991,508) translate(45.37037037037037 17.422222222222224)"/><use xlink:href="#A" transform="matrix(1,0,0,1,-89.59999999999991,508) translate(101.5679012345679 17.422222222222224)"/><use xlink:href="#B" transform="matrix(1,0,0,1,-89.59999999999991,508) translate(170.65432098765433 17.422222222222224)"/><use xlink:href="#C" transform="matrix(1,0,0,1,-89.59999999999991,508) translate(19.296296296296287 38.75555555555556)"/><use xlink:href="#D" transform="matrix(1,0,0,1,-89.59999999999991,508) translate(106.11111111111113 38.75555555555556)"/><use xlink:href="#E" transform="matrix(1,0,0,1,-89.59999999999991,508) translate(114.95061728395063 38.75555555555556)"/><use xlink:href="#F" transform="matrix(1,0,0,1,-89.59999999999991,508) translate(179.0493827160494 38.75555555555556)"/><use xlink:href="#G" transform="matrix(1,0,0,1,-89.59999999999991,508) translate(81.96296296296298 60.088888888888896)"/><path d="M41.2 800c0 11.05-8.95 20-20 20s-20-8.95-20-20 8.95-20 20-20 20 8.95 20 20z" stroke="#666" fill="#fff"/><path d="M33.2 800c0 6.63-5.37 12-12 12s-12-5.37-12-12 5.37-12 12-12 12 5.37 12 12z" stroke="#666"/><path d="M15.95 2.6a10.84 10.84 0 0 1 10.5 0l88.9 49.2a3.32 3.32 0 0 1 0 5.8l-88.9 49.2a10.84 10.84 0 0 1-10.5 0l-88.9-49.2a3.32 3.32 0 0 1 0-5.8z" stroke="#009985" stroke-width="4" fill="#fff"/><use xlink:href="#H" transform="matrix(1,0,0,1,-73.19999999999993,4.692805271598331) translate(57.98648148148149 32.972222222222214)"/><use xlink:href="#I" transform="matrix(1,0,0,1,-73.19999999999993,4.692805271598331) translate(111.27043209876544 32.972222222222214)"/><use xlink:href="#J" transform="matrix(1,0,0,1,-73.19999999999993,4.692805271598331) translate(48.18401234567903 54.30555555555554)"/><use xlink:href="#K" transform="matrix(1,0,0,1,-73.19999999999993,4.692805271598331) translate(111.19635802469135 54.30555555555554)"/><use xlink:href="#L" transform="matrix(1,0,0,1,-73.19999999999993,4.692805271598331) translate(57.51734567901236 75.63888888888887)"/><path d="M-178.63 55.2h-54.15l-.88.06-.84.2-.8.33-.73.44-.66.56-.55.66-.45.74-.33.8-.2.83-.07.88v2.6h-1v-2.63l.08-1 .24-1 .4-.93.52-.87.66-.77.78-.67.87-.53.94-.4.98-.23 1-.08h54.2zm101.46 0h-84.67v-1h84.67z" stroke="#3a414a" stroke-width=".05" fill="#3a414a"/><path d="M-76.67 54.7l.05.5h-.57v-1h.58z" fill="#3a414a"/><path d="M-76.65 54.7l.06.52h-.6v-1.05h.6zm-.5-.48v.95h.5l-.05-.48.05-.48z" stroke="#3a414a" stroke-width=".05" fill="#3a414a"/><path d="M-238.8 78.08l-4.63-14.27h9.27z" fill="#3a414a"/><path d="M-238.8 79.7l-5.32-16.4h10.64zm-3.95-15.4l3.95 12.16 3.95-12.15z" stroke="#3a414a" stroke-width=".05" fill="#3a414a"/><g><use xlink:href="#M" transform="matrix(1,0,0,1,-178.6320727401219,44.02613860493166) translate(0 14.222222222222223)"/></g><path d="M276.22 54.27l1 .24.93.4.87.53.78.67.66.77.53.87.38.94.24 1 .08 1v2.63h-1v-2.6l-.07-.87-.2-.84-.33-.8-.45-.74-.56-.66-.67-.56-.73-.45-.8-.34-.84-.2-.88-.07h-50.74v-1h50.78zm-156.65.92v-1h81.27v1z" stroke="#3a414a" stroke-width=".05" fill="#3a414a"/><path d="M119.6 55.2H119l.05-.5-.05-.5h.57z" fill="#3a414a"/><path d="M119.6 55.22h-.6l.05-.53-.06-.53h.6zm-.55-1l.05.47-.05.47h.5v-.95z" stroke="#3a414a" stroke-width=".05" fill="#3a414a"/><path d="M281.2 78.08l-4.63-14.27h9.26z" fill="#3a414a"/><path d="M281.2 79.7l-5.32-16.4h10.64zm-3.95-15.4l3.95 12.16 3.95-12.15z" stroke="#3a414a" stroke-width=".05" fill="#3a414a"/><g><use xlink:href="#N" transform="matrix(1,0,0,1,200.83454187592451,44.02613860493166) translate(0 14.222222222222223)"/></g><path d="M-245.5 202.2a12.96 12.96 0 0 1 10.9 0l107.9 49.97a2.78 2.78 0 0 1 0 5.04l-107.9 49.97a12.96 12.96 0 0 1-10.9 0l-107.9-49.96a2.78 2.78 0 0 1 0-5.03z" stroke="#009985" stroke-width="4" fill="#fff"/><g><use xlink:href="#H" transform="matrix(1,0,0,1,-353.8478818424547,204.69280527159833) translate(63.19018518518519 39.222222222222214)"/><use xlink:href="#O" transform="matrix(1,0,0,1,-353.8478818424547,204.69280527159833) translate(116.47413580246914 39.222222222222214)"/><use xlink:href="#I" transform="matrix(1,0,0,1,-353.8478818424547,204.69280527159833) translate(145.06672839506172 39.222222222222214)"/><use xlink:href="#P" transform="matrix(1,0,0,1,-353.8478818424547,204.69280527159833) translate(43.43709876543213 60.55555555555554)"/><use xlink:href="#Q" transform="matrix(1,0,0,1,-353.8478818424547,204.69280527159833) translate(97.65932098765433 60.55555555555554)"/><use xlink:href="#R" transform="matrix(1,0,0,1,-353.8478818424547,204.69280527159833) translate(131.23956790123455 60.55555555555554)"/><use xlink:href="#S" transform="matrix(1,0,0,1,-353.8478818424547,204.69280527159833) translate(80.93709876543211 81.88888888888887)"/></g><path d="M-239.55 363.6h-1v-7.75h1zm0-29.08h-1v-23.65h1z" stroke="#3a414a" stroke-width=".05" fill="#3a414a"/><path d="M-240.05 310.37l.5-.02v.54h-1v-.55z" fill="#3a414a"/><path d="M-240.05 310.35l.53-.03v.6h-1.05v-.6zm-.47.5h.95v-.47l-.48.02-.47-.02z" stroke="#3a414a" stroke-width=".05" fill="#3a414a"/><path d="M-240.05 378.38l-4.63-14.26h9.27z" fill="#3a414a"/><path d="M-240.05 380l-5.32-16.38h10.65zm-3.94-15.38l3.95 12.14 3.95-12.14z" stroke="#3a414a" stroke-width=".05" fill="#3a414a"/><g><use xlink:href="#T" transform="matrix(1,0,0,1,-248.44294357084976,334.51991563447694) translate(0 14.222222222222223)"/></g><path d="M39.57 343.67l.06.88.2.84.34.8.45.73.56.65.65.56.74.45.8.32.84.2.88.07h139.74v1H45.05l-1-.1-1-.22-.94-.4-.86-.53-.77-.66-.66-.8-.53-.86-.4-.94-.23-1-.07-1v-30.84h1zm-5.5-89.4l1 .24.95.4.87.53.76.67.67.77.53.87.4.94.23 1 .07 1v30.85h-1V260.7l-.07-.87-.2-.84-.33-.8-.46-.74-.55-.65-.65-.56-.74-.45-.8-.34-.83-.2-.88-.07h-155.62v-1H33.08z" stroke="#3a414a" stroke-width=".05" fill="#3a414a"/><path d="M-122.56 255.2h-.57l.06-.5-.06-.5h.57z" fill="#3a414a"/><path d="M-122.53 255.22h-.62l.06-.53-.05-.53h.62zm-.57-1l.06.47-.06.47h.52v-.95z" stroke="#3a414a" stroke-width=".05" fill="#3a414a"/><path d="M199.58 349.7l-14.26 4.63v-9.27z" fill="#3a414a"/><path d="M201.2 349.7L184.82 355v-10.65zm-15.38 3.94l12.14-3.95-12.14-3.95z" stroke="#3a414a" stroke-width=".05" fill="#3a414a"/><g><use xlink:href="#N" transform="matrix(1,0,0,1,27.263043931020263,291.52613860493165) translate(0 14.222222222222223)"/></g><path d="M-81.6 640c-8.84 0-16 7.16-16 16v48c0 8.84 7.16 16 16 16H124c8.84 0 16-7.16 16-16v-48c0-8.84-7.16-16-16-16z" stroke="#000" stroke-opacity="0" fill="#b8f5ed"/><g><use xlink:href="#U" transform="matrix(1,0,0,1,-89.59999999999991,648) translate(19.888888888888896 17.422222222222224)"/><use xlink:href="#V" transform="matrix(1,0,0,1,-89.59999999999991,648) translate(85.71604938271606 17.422222222222224)"/><use xlink:href="#W" transform="matrix(1,0,0,1,-89.59999999999991,648) translate(98.45679012345681 17.422222222222224)"/><use xlink:href="#X" transform="matrix(1,0,0,1,-89.59999999999991,648) translate(192.23456790123458 17.422222222222224)"/><use xlink:href="#Y" transform="matrix(1,0,0,1,-89.59999999999991,648) translate(40.06172839506172 38.75555555555556)"/><use xlink:href="#Z" transform="matrix(1,0,0,1,-89.59999999999991,648) translate(83.41975308641975 38.75555555555556)"/><use xlink:href="#aa" transform="matrix(1,0,0,1,-89.59999999999991,648) translate(98.23456790123457 38.75555555555556)"/><use xlink:href="#V" transform="matrix(1,0,0,1,-89.59999999999991,648) translate(140.60493827160496 38.75555555555556)"/><use xlink:href="#ab" transform="matrix(1,0,0,1,-89.59999999999991,648) translate(153.3456790123457 38.75555555555556)"/><use xlink:href="#ac" transform="matrix(1,0,0,1,-89.59999999999991,648) translate(26.87654320987654 60.088888888888896)"/><use xlink:href="#ad" transform="matrix(1,0,0,1,-89.59999999999991,648) translate(108.4567901234568 60.088888888888896)"/><use xlink:href="#G" transform="matrix(1,0,0,1,-89.59999999999991,648) translate(137.0493827160494 60.088888888888896)"/></g><path d="M21.2 580.5v43.12" stroke="#3a414a" fill="none"/><path d="M21.7 580.5h-1v-.5h1z" stroke="#3a414a" stroke-width=".05" fill="#3a414a"/><path d="M21.2 638.38l-4.63-14.26h9.27z" stroke="#3a414a" fill="#3a414a"/><path d="M21.2 720.5v42.62" stroke="#3a414a" fill="none"/><path d="M21.7 720.5h-1v-.5h1z" stroke="#3a414a" stroke-width=".05" fill="#3a414a"/><path d="M21.2 777.88l-4.63-14.26h9.27z" stroke="#3a414a" fill="#3a414a"/><defs><path fill="#fff" d="M14 0l48-248h34L48 0H14" id="ae"/><path fill="#fff" d="M6 0l50-261h32L37 0H6" id="af"/><g id="a"><use transform="matrix(0.04938271604938272,0,0,0.04938271604938272,0,0)" xlink:href="#ae"/><use transform="matrix(0.04938271604938272,0,0,0.04938271604938272,4.938271604938272,0)" xlink:href="#af"/></g><path fill="#fff" d="M44-68c0 29 11 47 38 47 30 0 42-19 51-41l28 9C148-21 126 4 82 4 31 4 10-29 12-85c3-77 74-140 146-93 12 8 15 23 18 40l-31 5c-1-22-13-36-36-36-52 0-65 49-65 101" id="ag"/><path fill="#fff" d="M50-231l6-30h32l-6 30H50zM6 0l37-190h31L37 0H6" id="ah"/><path fill="#fff" d="M111-194c62-3 86 47 72 106H45c-7 38 6 69 45 68 27-1 43-14 53-32l24 11C152-15 129 4 87 4 38 3 12-23 12-71c0-70 32-119 99-123zm44 81c14-66-71-72-95-28-4 8-8 17-11 28h106" id="ai"/><path fill="#fff" d="M67-158c22-48 132-52 116 29L158 0h-32l25-140c3-38-53-32-70-12C52-117 51-52 38 0H6l36-190h30" id="aj"/><path fill="#fff" d="M51-54c-9 22 5 41 31 30L79-1C43 14 10-4 19-52l22-115H19l5-23h22l19-43h21l-9 43h35l-4 23H73" id="ak"/><g id="b"><use transform="matrix(0.04938271604938272,0,0,0.04938271604938272,0,0)" xlink:href="#ag"/><use transform="matrix(0.04938271604938272,0,0,0.04938271604938272,8.88888888888889,0)" xlink:href="#af"/><use transform="matrix(0.04938271604938272,0,0,0.04938271604938272,12.790123456790125,0)" xlink:href="#ah"/><use transform="matrix(0.04938271604938272,0,0,0.04938271604938272,16.691358024691358,0)" xlink:href="#ai"/><use transform="matrix(0.04938271604938272,0,0,0.04938271604938272,26.567901234567902,0)" xlink:href="#aj"/><use transform="matrix(0.04938271604938272,0,0,0.04938271604938272,36.44444444444444,0)" xlink:href="#ak"/><use transform="matrix(0.04938271604938272,0,0,0.04938271604938272,41.382716049382715,0)" xlink:href="#ai"/></g><path fill="#fff" d="M165-48c-4 18 1 34 23 27l-3 20c-29 8-62 0-52-35h-2C116-14 99 4 63 4 30 4 8-16 8-49c0-68 71-67 138-67 10-26 0-56-31-54-26 1-42 9-47 31l-32-5c8-67 160-71 144 15-5 28-9 54-15 81zM42-50c3 52 80 24 89-6 7-12 7-24 11-38-47 1-103-4-100 44" id="al"/><path fill="#fff" d="M103-194c29 0 47 14 56 36 2-11 5-23 8-32h30L160-5C157 61 82 97 21 62 9 55 4 45 1 30l28-7c7 42 83 31 92-3 4-16 9-38 13-55-13 20-29 36-62 36-40 0-60-25-60-64 0-71 23-131 91-131zm4 24c-53 0-58 54-61 104-2 27 10 44 36 44 49 0 65-50 67-102 1-29-15-46-42-46" id="am"/><path fill="#fff" d="M67 3c-93-2-31-127-26-193h32L48-50c-3 39 53 32 70 12 30-34 30-101 43-152h32L157 0h-30c1-10 6-24 4-33-14 20-29 37-64 36" id="an"/><g id="c"><use transform="matrix(0.04938271604938272,0,0,0.04938271604938272,0,0)" xlink:href="#al"/><use transform="matrix(0.04938271604938272,0,0,0.04938271604938272,9.876543209876544,0)" xlink:href="#am"/><use transform="matrix(0.04938271604938272,0,0,0.04938271604938272,19.75308641975309,0)" xlink:href="#am"/><use transform="matrix(0.04938271604938272,0,0,0.04938271604938272,29.629629629629633,0)" xlink:href="#ah"/><use transform="matrix(0.04938271604938272,0,0,0.04938271604938272,33.53086419753087,0)" xlink:href="#an"/><use transform="matrix(0.04938271604938272,0,0,0.04938271604938272,43.40740740740741,0)" xlink:href="#aj"/><use transform="matrix(0.04938271604938272,0,0,0.04938271604938272,53.283950617283956,0)" xlink:href="#am"/><use transform="matrix(0.04938271604938272,0,0,0.04938271604938272,63.1604938271605,0)" xlink:href="#ai"/></g><g id="d"><use transform="matrix(0.04938271604938272,0,0,0.04938271604938272,0,0)" xlink:href="#ah"/><use transform="matrix(0.04938271604938272,0,0,0.04938271604938272,3.901234567901235,0)" xlink:href="#af"/></g><path fill="#fff" d="M67-162c32-53 139-36 121 50C175-51 163 2 97 4 68 4 52-11 42-31 38 6 28 39 22 75H-9l50-265h29c-1 10 0 20-3 28zm89 36c0-26-10-43-35-43-54 0-67 50-69 103-1 29 14 45 42 46 53 0 62-58 62-106" id="ao"/><path fill="#fff" d="M66-151c12-25 30-51 66-40l-6 26C45-176 58-65 38 0H6l36-190h30" id="ap"/><path fill="#fff" d="M30-147c31-64 166-65 159 27C183-49 158 1 86 4 9 8 1-88 30-147zM88-20c53 0 68-48 68-100 0-31-11-51-44-50-52 1-68 46-68 97 0 32 13 53 44 53" id="aq"/><path fill="#fff" d="M133-28C103 26-5 8 13-77c13-62 24-115 90-117 29-1 46 15 56 35l19-102h32L160 0h-30zM45-64c-2 27 10 43 35 43 54-1 69-50 69-103 0-29-15-46-42-46-53-1-58 58-62 106" id="ar"/><g id="e"><use transform="matrix(0.04938271604938272,0,0,0.04938271604938272,0,0)" xlink:href="#ao"/><use transform="matrix(0.04938271604938272,0,0,0.04938271604938272,9.876543209876544,0)" xlink:href="#ap"/><use transform="matrix(0.04938271604938272,0,0,0.04938271604938272,15.753086419753087,0)" xlink:href="#aq"/><use transform="matrix(0.04938271604938272,0,0,0.04938271604938272,25.629629629629633,0)" xlink:href="#ar"/><use transform="matrix(0.04938271604938272,0,0,0.04938271604938272,35.50617283950618,0)" xlink:href="#aq"/><use transform="matrix(0.04938271604938272,0,0,0.04938271604938272,45.38271604938272,0)" xlink:href="#ak"/><use transform="matrix(0.04938271604938272,0,0,0.04938271604938272,50.320987654320994,0)" xlink:href="#ak"/><use transform="matrix(0.04938271604938272,0,0,0.04938271604938272,55.25925925925927,0)" xlink:href="#aq"/></g><g id="f"><use transform="matrix(0.04938271604938272,0,0,0.04938271604938272,0,0)" xlink:href="#al"/><use transform="matrix(0.04938271604938272,0,0,0.04938271604938272,9.876543209876544,0)" xlink:href="#af"/></g><g id="g"><use transform="matrix(0.04938271604938272,0,0,0.04938271604938272,0,0)" xlink:href="#ag"/><use transform="matrix(0.04938271604938272,0,0,0.04938271604938272,8.88888888888889,0)" xlink:href="#al"/><use transform="matrix(0.04938271604938272,0,0,0.04938271604938272,18.765432098765434,0)" xlink:href="#ap"/><use transform="matrix(0.04938271604938272,0,0,0.04938271604938272,24.641975308641978,0)" xlink:href="#ap"/><use transform="matrix(0.04938271604938272,0,0,0.04938271604938272,30.518518518518523,0)" xlink:href="#ai"/><use transform="matrix(0.04938271604938272,0,0,0.04938271604938272,40.39506172839506,0)" xlink:href="#af"/><use transform="matrix(0.04938271604938272,0,0,0.04938271604938272,44.2962962962963,0)" xlink:href="#af"/><use transform="matrix(0.04938271604938272,0,0,0.04938271604938272,48.19753086419753,0)" xlink:href="#aq"/></g><path fill="#fff" d="M62-99C39-31 123 0 170-40s38-139 58-208h34C234-144 253 4 115 4 49 4 18-43 31-112l26-136h34" id="as"/><path fill="#fff" d="M55-144c13 50 104 24 104 88C159 21 15 23 1-39l26-10c6 40 102 42 102-4-13-50-104-23-104-87 0-71 143-71 148-8l-29 4c-5-35-85-37-89 0" id="at"/><g id="h"><use transform="matrix(0.04938271604938272,0,0,0.04938271604938272,0,0)" xlink:href="#as"/><use transform="matrix(0.04938271604938272,0,0,0.04938271604938272,12.790123456790125,0)" xlink:href="#at"/><use transform="matrix(0.04938271604938272,0,0,0.04938271604938272,21.679012345679013,0)" xlink:href="#al"/></g><g id="i"><use transform="matrix(0.04938271604938272,0,0,0.04938271604938272,0,0)" xlink:href="#ah"/><use transform="matrix(0.04938271604938272,0,0,0.04938271604938272,3.901234567901235,0)" xlink:href="#af"/></g><g id="j"><use transform="matrix(0.04938271604938272,0,0,0.04938271604938272,0,0)" xlink:href="#ag"/><use transform="matrix(0.04938271604938272,0,0,0.04938271604938272,8.88888888888889,0)" xlink:href="#al"/><use transform="matrix(0.04938271604938272,0,0,0.04938271604938272,18.765432098765434,0)" xlink:href="#ap"/><use transform="matrix(0.04938271604938272,0,0,0.04938271604938272,24.641975308641978,0)" xlink:href="#ap"/><use transform="matrix(0.04938271604938272,0,0,0.04938271604938272,30.518518518518523,0)" xlink:href="#ai"/><use transform="matrix(0.04938271604938272,0,0,0.04938271604938272,40.39506172839506,0)" xlink:href="#af"/><use transform="matrix(0.04938271604938272,0,0,0.04938271604938272,44.2962962962963,0)" xlink:href="#af"/><use transform="matrix(0.04938271604938272,0,0,0.04938271604938272,48.19753086419753,0)" xlink:href="#aq"/></g><path fill="#fff" d="M166-48c-4 18 1 34 23 27l-3 20c-29 8-62 0-52-35h-2C117-14 100 4 64 4 31 4 9-16 9-49c0-68 71-67 138-67 10-26 0-56-31-54-26 1-42 9-47 31l-32-5c8-67 160-71 144 15-5 28-9 54-15 81zM43-50c3 52 80 24 89-6 7-12 7-24 11-38-47 1-103-4-100 44zm89-161l-49-49 1-5h36c9 19 22 33 28 54h-16" id="au"/><g id="k"><use transform="matrix(0.04938271604938272,0,0,0.04938271604938272,0,0)" xlink:href="#am"/><use transform="matrix(0.04938271604938272,0,0,0.04938271604938272,9.876543209876544,0)" xlink:href="#ah"/><use transform="matrix(0.04938271604938272,0,0,0.04938271604938272,13.777777777777779,0)" xlink:href="#au"/></g><g id="l"><use transform="matrix(0.04938271604938272,0,0,0.04938271604938272,0,0)" xlink:href="#ao"/><use transform="matrix(0.04938271604938272,0,0,0.04938271604938272,9.876543209876544,0)" xlink:href="#ap"/><use transform="matrix(0.04938271604938272,0,0,0.04938271604938272,15.753086419753087,0)" xlink:href="#ai"/><use transform="matrix(0.04938271604938272,0,0,0.04938271604938272,25.629629629629633,0)" xlink:href="#at"/><use transform="matrix(0.04938271604938272,0,0,0.04938271604938272,34.51851851851852,0)" xlink:href="#ai"/><use transform="matrix(0.04938271604938272,0,0,0.04938271604938272,44.39506172839506,0)" xlink:href="#aj"/><use transform="matrix(0.04938271604938272,0,0,0.04938271604938272,54.27160493827161,0)" xlink:href="#ak"/><use transform="matrix(0.04938271604938272,0,0,0.04938271604938272,59.20987654320988,0)" xlink:href="#ai"/></g><path fill="#fff" d="M125-24c46 0 70-25 89-51l25 16C214-24 183 4 123 4 8 4-5-146 60-208c32-50 158-61 191-5 5 7 9 14 11 22l-32 10c-9-28-33-43-69-43-74 0-108 51-108 125 0 46 24 75 72 75" id="av"/><g id="m"><use transform="matrix(0.04938271604938272,0,0,0.04938271604938272,0,0)" xlink:href="#av"/><use transform="matrix(0.04938271604938272,0,0,0.04938271604938272,12.790123456790125,0)" xlink:href="#ap"/><use transform="matrix(0.04938271604938272,0,0,0.04938271604938272,18.666666666666668,0)" xlink:href="#ai"/><use transform="matrix(0.04938271604938272,0,0,0.04938271604938272,28.543209876543212,0)" xlink:href="#al"/></g><g id="n"><use transform="matrix(0.04938271604938272,0,0,0.04938271604938272,0,0)" xlink:href="#an"/><use transform="matrix(0.04938271604938272,0,0,0.04938271604938272,9.876543209876544,0)" xlink:href="#aj"/></g><path fill="#fff" d="M89 0H52L20-190h33L74-25l89-165h34" id="aw"/><g id="o"><use transform="matrix(0.04938271604938272,0,0,0.04938271604938272,0,0)" xlink:href="#aj"/><use transform="matrix(0.04938271604938272,0,0,0.04938271604938272,9.876543209876544,0)" xlink:href="#an"/><use transform="matrix(0.04938271604938272,0,0,0.04938271604938272,19.75308641975309,0)" xlink:href="#aq"/><use transform="matrix(0.04938271604938272,0,0,0.04938271604938272,29.629629629629633,0)" xlink:href="#aw"/><use transform="matrix(0.04938271604938272,0,0,0.04938271604938272,38.51851851851852,0)" xlink:href="#aq"/></g><path fill="#333" d="M205 0l-28-72H64L36 0H1l101-248h38L239 0h-34zm-38-99l-47-123c-12 45-31 82-46 123h93" id="ax"/><path fill="#333" d="M177-190C167-65 218 103 67 71c-23-6-38-20-44-43l32-5c15 47 100 32 89-28v-30C133-14 115 1 83 1 29 1 15-40 15-95c0-56 16-97 71-98 29-1 48 16 59 35 1-10 0-23 2-32h30zM94-22c36 0 50-32 50-73 0-42-14-75-50-75-39 0-46 34-46 75s6 73 46 73" id="ay"/><path fill="#333" d="M24-231v-30h32v30H24zM24 0v-190h32V0H24" id="az"/><path fill="#333" d="M84 4C-5 8 30-112 23-190h32v120c0 31 7 50 39 49 72-2 45-101 50-169h31l1 190h-30c-1-10 1-25-2-33-11 22-28 36-60 37" id="aA"/><path fill="#333" d="M117-194c89-4 53 116 60 194h-32v-121c0-31-8-49-39-48C34-167 62-67 57 0H25l-1-190h30c1 10-1 24 2 32 11-22 29-35 61-36" id="aB"/><g id="p"><use transform="matrix(0.04938271604938272,0,0,0.04938271604938272,0,0)" xlink:href="#ax"/><use transform="matrix(0.04938271604938272,0,0,0.04938271604938272,11.851851851851853,0)" xlink:href="#ay"/><use transform="matrix(0.04938271604938272,0,0,0.04938271604938272,21.7283950617284,0)" xlink:href="#ay"/><use transform="matrix(0.04938271604938272,0,0,0.04938271604938272,31.60493827160494,0)" xlink:href="#az"/><use transform="matrix(0.04938271604938272,0,0,0.04938271604938272,35.50617283950618,0)" xlink:href="#aA"/><use transform="matrix(0.04938271604938272,0,0,0.04938271604938272,45.38271604938272,0)" xlink:href="#aB"/><use transform="matrix(0.04938271604938272,0,0,0.04938271604938272,55.25925925925927,0)" xlink:href="#ay"/><use transform="matrix(0.04938271604938272,0,0,0.04938271604938272,65.13580246913581,0)" xlink:href="#az"/></g><path fill="#333" d="M24 0v-261h32V0H24" id="aC"/><path fill="#333" d="M141-36C126-15 110 5 73 4 37 3 15-17 15-53c-1-64 63-63 125-63 3-35-9-54-41-54-24 1-41 7-42 31l-33-3c5-37 33-52 76-52 45 0 72 20 72 64v82c-1 20 7 32 28 27v20c-31 9-61-2-59-35zM48-53c0 20 12 33 32 33 41-3 63-29 60-74-43 2-92-5-92 41" id="aD"/><g id="q"><use transform="matrix(0.04938271604938272,0,0,0.04938271604938272,0,0)" xlink:href="#aC"/><use transform="matrix(0.04938271604938272,0,0,0.04938271604938272,3.901234567901235,0)" xlink:href="#aD"/></g><path fill="#333" d="M145-31C134-9 116 4 85 4 32 4 16-35 15-94c0-59 17-99 70-100 32-1 48 14 60 33 0-11-1-24 2-32h30l-1 268h-32zM93-21c41 0 51-33 51-76s-8-73-50-73c-40 0-46 35-46 75s5 74 45 74" id="aE"/><path fill="#333" d="M59-47c-2 24 18 29 38 22v24C64 9 27 4 27-40v-127H5v-23h24l9-43h21v43h35v23H59v120" id="aF"/><path fill="#333" d="M141-36C126-15 110 5 73 4 37 3 15-17 15-53c-1-64 63-63 125-63 3-35-9-54-41-54-24 1-41 7-42 31l-33-3c5-37 33-52 76-52 45 0 72 20 72 64v82c-1 20 7 32 28 27v20c-31 9-61-2-59-35zM48-53c0 20 12 33 32 33 41-3 63-29 60-74-43 2-92-5-92 41zm62-158l-58-49v-5h36c12 19 30 32 38 54h-16" id="aG"/><g id="r"><use transform="matrix(0.04938271604938272,0,0,0.04938271604938272,0,0)" xlink:href="#aE"/><use transform="matrix(0.04938271604938272,0,0,0.04938271604938272,9.876543209876544,0)" xlink:href="#aA"/><use transform="matrix(0.04938271604938272,0,0,0.04938271604938272,19.75308641975309,0)" xlink:href="#aD"/><use transform="matrix(0.04938271604938272,0,0,0.04938271604938272,29.629629629629633,0)" xlink:href="#aB"/><use transform="matrix(0.04938271604938272,0,0,0.04938271604938272,39.50617283950618,0)" xlink:href="#aF"/><use transform="matrix(0.04938271604938272,0,0,0.04938271604938272,44.44444444444445,0)" xlink:href="#az"/><use transform="matrix(0.04938271604938272,0,0,0.04938271604938272,48.345679012345684,0)" xlink:href="#aF"/><use transform="matrix(0.04938271604938272,0,0,0.04938271604938272,53.283950617283956,0)" xlink:href="#aG"/></g><path fill="#333" d="M135-143c-3-34-86-38-87 0 15 53 115 12 119 90S17 21 10-45l28-5c4 36 97 45 98 0-10-56-113-15-118-90-4-57 82-63 122-42 12 7 21 19 24 35" id="aH"/><path fill="#333" d="M100-194c63 0 86 42 84 106H49c0 40 14 67 53 68 26 1 43-12 49-29l28 8c-11 28-37 45-77 45C44 4 14-33 15-96c1-61 26-98 85-98zm52 81c6-60-76-77-97-28-3 7-6 17-6 28h103" id="aI"/><path fill="#333" d="M9 0v-24l116-142H16v-24h144v24L44-24h123V0H9" id="aJ"/><path fill="#333" d="M100-194c62-1 85 37 85 99 1 63-27 99-86 99S16-35 15-95c0-66 28-99 85-99zM99-20c44 1 53-31 53-75 0-43-8-75-51-75s-53 32-53 75 10 74 51 75" id="aK"/><g id="s"><use transform="matrix(0.04938271604938272,0,0,0.04938271604938272,0,0)" xlink:href="#aH"/><use transform="matrix(0.04938271604938272,0,0,0.04938271604938272,8.88888888888889,0)" xlink:href="#aI"/><use transform="matrix(0.04938271604938272,0,0,0.04938271604938272,18.765432098765434,0)" xlink:href="#aC"/><use transform="matrix(0.04938271604938272,0,0,0.04938271604938272,22.666666666666668,0)" xlink:href="#aI"/><use transform="matrix(0.04938271604938272,0,0,0.04938271604938272,32.543209876543216,0)" xlink:href="#aJ"/><use transform="matrix(0.04938271604938272,0,0,0.04938271604938272,41.4320987654321,0)" xlink:href="#az"/><use transform="matrix(0.04938271604938272,0,0,0.04938271604938272,45.333333333333336,0)" xlink:href="#aK"/><use transform="matrix(0.04938271604938272,0,0,0.04938271604938272,55.20987654320988,0)" xlink:href="#aB"/><use transform="matrix(0.04938271604938272,0,0,0.04938271604938272,65.08641975308643,0)" xlink:href="#aD"/><use transform="matrix(0.04938271604938272,0,0,0.04938271604938272,74.96296296296298,0)" xlink:href="#aF"/><use transform="matrix(0.04938271604938272,0,0,0.04938271604938272,79.90123456790124,0)" xlink:href="#aD"/></g><path fill="#333" d="M47-170H22l-4-78h33" id="aL"/><path fill="#333" d="M114-163C36-179 61-72 57 0H25l-1-190h30c1 12-1 29 2 39 6-27 23-49 58-41v29" id="aM"/><path fill="#333" d="M85-194c31 0 48 13 60 33l-1-100h32l1 261h-30c-2-10 0-23-3-31C134-8 116 4 85 4 32 4 16-35 15-94c0-66 23-100 70-100zm9 24c-40 0-46 34-46 75 0 40 6 74 45 74 42 0 51-32 51-76 0-42-9-74-50-73" id="aN"/><g id="t"><use transform="matrix(0.04938271604938272,0,0,0.04938271604938272,0,0)" xlink:href="#aD"/><use transform="matrix(0.04938271604938272,0,0,0.04938271604938272,9.876543209876544,0)" xlink:href="#aC"/><use transform="matrix(0.04938271604938272,0,0,0.04938271604938272,13.777777777777779,0)" xlink:href="#aC"/><use transform="matrix(0.04938271604938272,0,0,0.04938271604938272,17.679012345679013,0)" xlink:href="#aL"/><use transform="matrix(0.04938271604938272,0,0,0.04938271604938272,21.037037037037038,0)" xlink:href="#aK"/><use transform="matrix(0.04938271604938272,0,0,0.04938271604938272,30.913580246913583,0)" xlink:href="#aM"/><use transform="matrix(0.04938271604938272,0,0,0.04938271604938272,36.79012345679013,0)" xlink:href="#aN"/><use transform="matrix(0.04938271604938272,0,0,0.04938271604938272,46.66666666666667,0)" xlink:href="#az"/><use transform="matrix(0.04938271604938272,0,0,0.04938271604938272,50.567901234567906,0)" xlink:href="#aB"/><use transform="matrix(0.04938271604938272,0,0,0.04938271604938272,60.44444444444445,0)" xlink:href="#aI"/></g><g id="u"><use transform="matrix(0.04938271604938272,0,0,0.04938271604938272,0,0)" xlink:href="#aA"/><use transform="matrix(0.04938271604938272,0,0,0.04938271604938272,9.876543209876544,0)" xlink:href="#aB"/></g><g id="v"><use transform="matrix(0.04938271604938272,0,0,0.04938271604938272,0,0)" xlink:href="#aK"/><use transform="matrix(0.04938271604938272,0,0,0.04938271604938272,9.876543209876544,0)" xlink:href="#aM"/><use transform="matrix(0.04938271604938272,0,0,0.04938271604938272,15.753086419753087,0)" xlink:href="#aN"/><use transform="matrix(0.04938271604938272,0,0,0.04938271604938272,25.629629629629633,0)" xlink:href="#az"/><use transform="matrix(0.04938271604938272,0,0,0.04938271604938272,29.530864197530867,0)" xlink:href="#aB"/><use transform="matrix(0.04938271604938272,0,0,0.04938271604938272,39.40740740740741,0)" xlink:href="#aI"/></g><g id="w"><use transform="matrix(0.04938271604938272,0,0,0.04938271604938272,0,0)" xlink:href="#aN"/><use transform="matrix(0.04938271604938272,0,0,0.04938271604938272,9.876543209876544,0)" xlink:href="#aI"/><use transform="matrix(0.04938271604938272,0,0,0.04938271604938272,19.75308641975309,0)" xlink:href="#aC"/></g><path fill="#333" d="M115-194c55 1 70 41 70 98S169 2 115 4C84 4 66-9 55-30l1 105H24l-1-265h31l2 30c10-21 28-34 59-34zm-8 174c40 0 45-34 45-75s-6-73-45-74c-42 0-51 32-51 76 0 43 10 73 51 73" id="aO"/><g id="x"><use transform="matrix(0.04938271604938272,0,0,0.04938271604938272,0,0)" xlink:href="#aO"/><use transform="matrix(0.04938271604938272,0,0,0.04938271604938272,9.876543209876544,0)" xlink:href="#aM"/><use transform="matrix(0.04938271604938272,0,0,0.04938271604938272,15.753086419753087,0)" xlink:href="#aK"/><use transform="matrix(0.04938271604938272,0,0,0.04938271604938272,25.629629629629633,0)" xlink:href="#aN"/><use transform="matrix(0.04938271604938272,0,0,0.04938271604938272,35.50617283950618,0)" xlink:href="#aK"/><use transform="matrix(0.04938271604938272,0,0,0.04938271604938272,45.38271604938272,0)" xlink:href="#aF"/><use transform="matrix(0.04938271604938272,0,0,0.04938271604938272,50.320987654320994,0)" xlink:href="#aF"/><use transform="matrix(0.04938271604938272,0,0,0.04938271604938272,55.25925925925927,0)" xlink:href="#aK"/></g><path fill="#333" d="M33 0v-248h34V0H33" id="aP"/><g id="y"><use transform="matrix(0.04938271604938272,0,0,0.04938271604938272,0,0)" xlink:href="#aP"/><use transform="matrix(0.04938271604938272,0,0,0.04938271604938272,4.938271604938272,0)" xlink:href="#aC"/></g><path fill="#333" d="M96-169c-40 0-48 33-48 73s9 75 48 75c24 0 41-14 43-38l32 2c-6 37-31 61-74 61-59 0-76-41-82-99-10-93 101-131 147-64 4 7 5 14 7 22l-32 3c-4-21-16-35-41-35" id="aQ"/><g id="z"><use transform="matrix(0.04938271604938272,0,0,0.04938271604938272,0,0)" xlink:href="#aQ"/><use transform="matrix(0.04938271604938272,0,0,0.04938271604938272,8.88888888888889,0)" xlink:href="#aC"/><use transform="matrix(0.04938271604938272,0,0,0.04938271604938272,12.790123456790125,0)" xlink:href="#az"/><use transform="matrix(0.04938271604938272,0,0,0.04938271604938272,16.691358024691358,0)" xlink:href="#aI"/><use transform="matrix(0.04938271604938272,0,0,0.04938271604938272,26.567901234567902,0)" xlink:href="#aB"/><use transform="matrix(0.04938271604938272,0,0,0.04938271604938272,36.44444444444444,0)" xlink:href="#aF"/><use transform="matrix(0.04938271604938272,0,0,0.04938271604938272,41.382716049382715,0)" xlink:href="#aI"/></g><g id="A"><use transform="matrix(0.04938271604938272,0,0,0.04938271604938272,0,0)" xlink:href="#aO"/><use transform="matrix(0.04938271604938272,0,0,0.04938271604938272,9.876543209876544,0)" xlink:href="#aM"/><use transform="matrix(0.04938271604938272,0,0,0.04938271604938272,15.753086419753087,0)" xlink:href="#aK"/><use transform="matrix(0.04938271604938272,0,0,0.04938271604938272,25.629629629629633,0)" xlink:href="#aQ"/><use transform="matrix(0.04938271604938272,0,0,0.04938271604938272,34.51851851851852,0)" xlink:href="#aI"/><use transform="matrix(0.04938271604938272,0,0,0.04938271604938272,44.39506172839506,0)" xlink:href="#aN"/><use transform="matrix(0.04938271604938272,0,0,0.04938271604938272,54.27160493827161,0)" xlink:href="#aI"/></g><g id="B"><use transform="matrix(0.04938271604938272,0,0,0.04938271604938272,0,0)" xlink:href="#aD"/><use transform="matrix(0.04938271604938272,0,0,0.04938271604938272,9.876543209876544,0)" xlink:href="#aN"/></g><g id="C"><use transform="matrix(0.04938271604938272,0,0,0.04938271604938272,0,0)" xlink:href="#aD"/><use transform="matrix(0.04938271604938272,0,0,0.04938271604938272,9.876543209876544,0)" xlink:href="#aQ"/><use transform="matrix(0.04938271604938272,0,0,0.04938271604938272,18.765432098765434,0)" xlink:href="#aE"/><use transform="matrix(0.04938271604938272,0,0,0.04938271604938272,28.641975308641978,0)" xlink:href="#aA"/><use transform="matrix(0.04938271604938272,0,0,0.04938271604938272,38.51851851851852,0)" xlink:href="#az"/><use transform="matrix(0.04938271604938272,0,0,0.04938271604938272,42.41975308641975,0)" xlink:href="#aH"/><use transform="matrix(0.04938271604938272,0,0,0.04938271604938272,51.308641975308646,0)" xlink:href="#aF"/><use transform="matrix(0.04938271604938272,0,0,0.04938271604938272,56.24691358024692,0)" xlink:href="#aD"/><use transform="matrix(0.04938271604938272,0,0,0.04938271604938272,66.12345679012347,0)" xlink:href="#aM"/><use transform="matrix(0.04938271604938272,0,0,0.04938271604938272,72.00000000000001,0)" xlink:href="#aI"/></g><use transform="matrix(0.04938271604938272,0,0,0.04938271604938272,0,0)" xlink:href="#az" id="D"/><g id="E"><use transform="matrix(0.04938271604938272,0,0,0.04938271604938272,0,0)" xlink:href="#aO"/><use transform="matrix(0.04938271604938272,0,0,0.04938271604938272,9.876543209876544,0)" xlink:href="#aM"/><use transform="matrix(0.04938271604938272,0,0,0.04938271604938272,15.753086419753087,0)" xlink:href="#aK"/><use transform="matrix(0.04938271604938272,0,0,0.04938271604938272,25.629629629629633,0)" xlink:href="#aN"/><use transform="matrix(0.04938271604938272,0,0,0.04938271604938272,35.50617283950618,0)" xlink:href="#aK"/><use transform="matrix(0.04938271604938272,0,0,0.04938271604938272,45.38271604938272,0)" xlink:href="#aF"/><use transform="matrix(0.04938271604938272,0,0,0.04938271604938272,50.320987654320994,0)" xlink:href="#aF"/><use transform="matrix(0.04938271604938272,0,0,0.04938271604938272,55.25925925925927,0)" xlink:href="#az"/></g><g id="F"><use transform="matrix(0.04938271604938272,0,0,0.04938271604938272,0,0)" xlink:href="#aB"/><use transform="matrix(0.04938271604938272,0,0,0.04938271604938272,9.876543209876544,0)" xlink:href="#aI"/><use transform="matrix(0.04938271604938272,0,0,0.04938271604938272,19.75308641975309,0)" xlink:href="#aC"/></g><g id="G"><use transform="matrix(0.04938271604938272,0,0,0.04938271604938272,0,0)" xlink:href="#aQ"/><use transform="matrix(0.04938271604938272,0,0,0.04938271604938272,8.88888888888889,0)" xlink:href="#aD"/><use transform="matrix(0.04938271604938272,0,0,0.04938271604938272,18.765432098765434,0)" xlink:href="#aM"/><use transform="matrix(0.04938271604938272,0,0,0.04938271604938272,24.641975308641978,0)" xlink:href="#aM"/><use transform="matrix(0.04938271604938272,0,0,0.04938271604938272,30.518518518518523,0)" xlink:href="#aI"/><use transform="matrix(0.04938271604938272,0,0,0.04938271604938272,40.39506172839506,0)" xlink:href="#aC"/><use transform="matrix(0.04938271604938272,0,0,0.04938271604938272,44.2962962962963,0)" xlink:href="#aC"/><use transform="matrix(0.04938271604938272,0,0,0.04938271604938272,48.19753086419753,0)" xlink:href="#aK"/></g><path fill="#3a414a" d="M30 0v-248h187v28H63v79h144v27H63v87h162V0H30" id="aR"/><path fill="#3a414a" d="M135-143c-3-34-86-38-87 0 15 53 115 12 119 90S17 21 10-45l28-5c4 36 97 45 98 0-10-56-113-15-118-90-4-57 82-63 122-42 12 7 21 19 24 35" id="aS"/><path fill="#3a414a" d="M24-231v-30h32v30H24zM24 0v-190h32V0H24" id="aT"/><path fill="#3a414a" d="M59-47c-2 24 18 29 38 22v24C64 9 27 4 27-40v-127H5v-23h24l9-43h21v43h35v23H59v120" id="aU"/><path fill="#3a414a" d="M100-194c63 0 86 42 84 106H49c0 40 14 67 53 68 26 1 43-12 49-29l28 8c-11 28-37 45-77 45C44 4 14-33 15-96c1-61 26-98 85-98zm52 81c6-60-76-77-97-28-3 7-6 17-6 28h103" id="aV"/><g id="H"><use transform="matrix(0.0493827160493827,0,0,0.0493827160493827,0,0)" xlink:href="#aR"/><use transform="matrix(0.0493827160493827,0,0,0.0493827160493827,11.851851851851848,0)" xlink:href="#aS"/><use transform="matrix(0.0493827160493827,0,0,0.0493827160493827,20.740740740740733,0)" xlink:href="#aT"/><use transform="matrix(0.0493827160493827,0,0,0.0493827160493827,24.641975308641968,0)" xlink:href="#aS"/><use transform="matrix(0.0493827160493827,0,0,0.0493827160493827,33.53086419753085,0)" xlink:href="#aU"/><use transform="matrix(0.0493827160493827,0,0,0.0493827160493827,38.469135802469125,0)" xlink:href="#aV"/></g><path fill="#3a414a" d="M84 4C-5 8 30-112 23-190h32v120c0 31 7 50 39 49 72-2 45-101 50-169h31l1 190h-30c-1-10 1-25-2-33-11 22-28 36-60 37" id="aW"/><path fill="#3a414a" d="M117-194c89-4 53 116 60 194h-32v-121c0-31-8-49-39-48C34-167 62-67 57 0H25l-1-190h30c1 10-1 24 2 32 11-22 29-35 61-36" id="aX"/><g id="I"><use transform="matrix(0.0493827160493827,0,0,0.0493827160493827,0,0)" xlink:href="#aW"/><use transform="matrix(0.0493827160493827,0,0,0.0493827160493827,9.876543209876539,0)" xlink:href="#aX"/></g><path fill="#3a414a" d="M96-169c-40 0-48 33-48 73s9 75 48 75c24 0 41-14 43-38l32 2c-6 37-31 61-74 61-59 0-76-41-82-99-10-93 101-131 147-64 4 7 5 14 7 22l-32 3c-4-21-16-35-41-35" id="aY"/><path fill="#3a414a" d="M141-36C126-15 110 5 73 4 37 3 15-17 15-53c-1-64 63-63 125-63 3-35-9-54-41-54-24 1-41 7-42 31l-33-3c5-37 33-52 76-52 45 0 72 20 72 64v82c-1 20 7 32 28 27v20c-31 9-61-2-59-35zM48-53c0 20 12 33 32 33 41-3 63-29 60-74-43 2-92-5-92 41" id="aZ"/><path fill="#3a414a" d="M114-163C36-179 61-72 57 0H25l-1-190h30c1 12-1 29 2 39 6-27 23-49 58-41v29" id="ba"/><path fill="#3a414a" d="M24 0v-261h32V0H24" id="bb"/><path fill="#3a414a" d="M100-194c62-1 85 37 85 99 1 63-27 99-86 99S16-35 15-95c0-66 28-99 85-99zM99-20c44 1 53-31 53-75 0-43-8-75-51-75s-53 32-53 75 10 74 51 75" id="bc"/><g id="J"><use transform="matrix(0.0493827160493827,0,0,0.0493827160493827,0,0)" xlink:href="#aY"/><use transform="matrix(0.0493827160493827,0,0,0.0493827160493827,8.888888888888886,0)" xlink:href="#aZ"/><use transform="matrix(0.0493827160493827,0,0,0.0493827160493827,18.765432098765423,0)" xlink:href="#ba"/><use transform="matrix(0.0493827160493827,0,0,0.0493827160493827,24.641975308641964,0)" xlink:href="#ba"/><use transform="matrix(0.0493827160493827,0,0,0.0493827160493827,30.5185185185185,0)" xlink:href="#aV"/><use transform="matrix(0.0493827160493827,0,0,0.0493827160493827,40.39506172839504,0)" xlink:href="#bb"/><use transform="matrix(0.0493827160493827,0,0,0.0493827160493827,44.296296296296276,0)" xlink:href="#bb"/><use transform="matrix(0.0493827160493827,0,0,0.0493827160493827,48.19753086419751,0)" xlink:href="#bc"/></g><g id="K"><use transform="matrix(0.0493827160493827,0,0,0.0493827160493827,0,0)" xlink:href="#aX"/><use transform="matrix(0.0493827160493827,0,0,0.0493827160493827,9.876543209876539,0)" xlink:href="#bc"/><use transform="matrix(0.0493827160493827,0,0,0.0493827160493827,19.753086419753078,0)" xlink:href="#aX"/></g><path fill="#3a414a" d="M85-194c31 0 48 13 60 33l-1-100h32l1 261h-30c-2-10 0-23-3-31C134-8 116 4 85 4 32 4 16-35 15-94c0-66 23-100 70-100zm9 24c-40 0-46 34-46 75 0 40 6 74 45 74 42 0 51-32 51-76 0-42-9-74-50-73" id="bd"/><path fill="#3a414a" d="M103-251c84 0 111 97 45 133-19 10-37 24-39 52H78c0-63 77-55 77-114 0-30-21-42-52-43-32 0-53 17-56 46l-32-2c7-45 34-72 88-72zM77 0v-35h34V0H77" id="be"/><g id="L"><use transform="matrix(0.0493827160493827,0,0,0.0493827160493827,0,0)" xlink:href="#bc"/><use transform="matrix(0.0493827160493827,0,0,0.0493827160493827,9.876543209876539,0)" xlink:href="#ba"/><use transform="matrix(0.0493827160493827,0,0,0.0493827160493827,15.753086419753082,0)" xlink:href="#bd"/><use transform="matrix(0.0493827160493827,0,0,0.0493827160493827,25.629629629629623,0)" xlink:href="#aT"/><use transform="matrix(0.0493827160493827,0,0,0.0493827160493827,29.530864197530853,0)" xlink:href="#aX"/><use transform="matrix(0.0493827160493827,0,0,0.0493827160493827,39.40740740740739,0)" xlink:href="#aZ"/><use transform="matrix(0.0493827160493827,0,0,0.0493827160493827,49.28395061728393,0)" xlink:href="#aU"/><use transform="matrix(0.0493827160493827,0,0,0.0493827160493827,54.22222222222221,0)" xlink:href="#bc"/><use transform="matrix(0.0493827160493827,0,0,0.0493827160493827,64.09876543209874,0)" xlink:href="#be"/></g><path fill="#333" d="M169-182c-1-43-94-46-97-3 18 66 151 10 154 114 3 95-165 93-204 36-6-8-10-19-12-30l50-8c3 46 112 56 116 5-17-69-150-10-154-114-4-87 153-88 188-35 5 8 8 18 10 28" id="bf"/><path fill="#333" d="M25 0v-190h50V0H25zm23-208l-59-48v-8h45l44 51v5H48" id="bg"/><g id="M"><use transform="matrix(0.04938271604938272,0,0,0.04938271604938272,0,0)" xlink:href="#bf"/><use transform="matrix(0.04938271604938272,0,0,0.04938271604938272,11.851851851851853,0)" xlink:href="#bg"/></g><path fill="#333" d="M175 0L67-191c6 58 2 128 3 191H24v-248h59L193-55c-6-58-2-129-3-193h46V0h-61" id="bh"/><path fill="#333" d="M110-194c64 0 96 36 96 99 0 64-35 99-97 99-61 0-95-36-95-99 0-62 34-99 96-99zm-1 164c35 0 45-28 45-65 0-40-10-65-43-65-34 0-45 26-45 65 0 36 10 65 43 65" id="bi"/><g id="N"><use transform="matrix(0.04938271604938272,0,0,0.04938271604938272,0,0)" xlink:href="#bh"/><use transform="matrix(0.04938271604938272,0,0,0.04938271604938272,12.790123456790125,0)" xlink:href="#bi"/></g><path fill="#3a414a" d="M177-190C167-65 218 103 67 71c-23-6-38-20-44-43l32-5c15 47 100 32 89-28v-30C133-14 115 1 83 1 29 1 15-40 15-95c0-56 16-97 71-98 29-1 48 16 59 35 1-10 0-23 2-32h30zM94-22c36 0 50-32 50-73 0-42-14-75-50-75-39 0-46 34-46 75s6 73 46 73" id="bj"/><path fill="#3a414a" d="M141-36C126-15 110 5 73 4 37 3 15-17 15-53c-1-64 63-63 125-63 3-35-9-54-41-54-24 1-41 7-42 31l-33-3c5-37 33-52 76-52 45 0 72 20 72 64v82c-1 20 7 32 28 27v20c-31 9-61-2-59-35zM48-53c0 20 12 33 32 33 41-3 63-29 60-74-43 2-92-5-92 41zm62-158l-58-49v-5h36c12 19 30 32 38 54h-16" id="bk"/><g id="O"><use transform="matrix(0.0493827160493827,0,0,0.0493827160493827,0,0)" xlink:href="#bj"/><use transform="matrix(0.0493827160493827,0,0,0.0493827160493827,9.876543209876539,0)" xlink:href="#aT"/><use transform="matrix(0.0493827160493827,0,0,0.0493827160493827,13.77777777777777,0)" xlink:href="#bk"/></g><g id="P"><use transform="matrix(0.0493827160493827,0,0,0.0493827160493827,0,0)" xlink:href="#bc"/><use transform="matrix(0.0493827160493827,0,0,0.0493827160493827,9.876543209876539,0)" xlink:href="#ba"/><use transform="matrix(0.0493827160493827,0,0,0.0493827160493827,15.753086419753082,0)" xlink:href="#bd"/><use transform="matrix(0.0493827160493827,0,0,0.0493827160493827,25.629629629629623,0)" xlink:href="#aT"/><use transform="matrix(0.0493827160493827,0,0,0.0493827160493827,29.530864197530853,0)" xlink:href="#aX"/><use transform="matrix(0.0493827160493827,0,0,0.0493827160493827,39.40740740740739,0)" xlink:href="#aV"/></g><g id="Q"><use transform="matrix(0.0493827160493827,0,0,0.0493827160493827,0,0)" xlink:href="#aY"/><use transform="matrix(0.0493827160493827,0,0,0.0493827160493827,8.888888888888886,0)" xlink:href="#bc"/><use transform="matrix(0.0493827160493827,0,0,0.0493827160493827,18.765432098765423,0)" xlink:href="#aX"/></g><path fill="#3a414a" d="M145-31C134-9 116 4 85 4 32 4 16-35 15-94c0-59 17-99 70-100 32-1 48 14 60 33 0-11-1-24 2-32h30l-1 268h-32zM93-21c41 0 51-33 51-76s-8-73-50-73c-40 0-46 35-46 75s5 74 45 74" id="bl"/><g id="R"><use transform="matrix(0.0493827160493827,0,0,0.0493827160493827,0,0)" xlink:href="#bl"/><use transform="matrix(0.0493827160493827,0,0,0.0493827160493827,9.876543209876539,0)" xlink:href="#aW"/><use transform="matrix(0.0493827160493827,0,0,0.0493827160493827,19.753086419753078,0)" xlink:href="#aV"/><use transform="matrix(0.0493827160493827,0,0,0.0493827160493827,29.62962962962962,0)" xlink:href="#aS"/><use transform="matrix(0.0493827160493827,0,0,0.0493827160493827,38.518518518518505,0)" xlink:href="#aU"/><use transform="matrix(0.0493827160493827,0,0,0.0493827160493827,43.45679012345678,0)" xlink:href="#bc"/></g><path fill="#3a414a" d="M115-194c55 1 70 41 70 98S169 2 115 4C84 4 66-9 55-30l1 105H24l-1-265h31l2 30c10-21 28-34 59-34zm-8 174c40 0 45-34 45-75s-6-73-45-74c-42 0-51 32-51 76 0 43 10 73 51 73" id="bm"/><g id="S"><use transform="matrix(0.0493827160493827,0,0,0.0493827160493827,0,0)" xlink:href="#bm"/><use transform="matrix(0.0493827160493827,0,0,0.0493827160493827,9.876543209876539,0)" xlink:href="#ba"/><use transform="matrix(0.0493827160493827,0,0,0.0493827160493827,15.753086419753082,0)" xlink:href="#bc"/><use transform="matrix(0.0493827160493827,0,0,0.0493827160493827,25.629629629629623,0)" xlink:href="#bd"/><use transform="matrix(0.0493827160493827,0,0,0.0493827160493827,35.506172839506156,0)" xlink:href="#bc"/><use transform="matrix(0.0493827160493827,0,0,0.0493827160493827,45.382716049382694,0)" xlink:href="#aU"/><use transform="matrix(0.0493827160493827,0,0,0.0493827160493827,50.320987654320966,0)" xlink:href="#aU"/><use transform="matrix(0.0493827160493827,0,0,0.0493827160493827,55.25925925925924,0)" xlink:href="#bc"/></g><g id="T"><use transform="matrix(0.04938271604938272,0,0,0.04938271604938272,0,0)" xlink:href="#bf"/><use transform="matrix(0.04938271604938272,0,0,0.04938271604938272,11.851851851851853,0)" xlink:href="#bg"/></g><path fill="#333" d="M30 0v-248h187v28H63v79h144v27H63v87h162V0H30" id="bn"/><path fill="#333" d="M101-234c-31-9-42 10-38 44h38v23H63V0H32v-167H5v-23h27c-7-52 17-82 69-68v24" id="bo"/><g id="U"><use transform="matrix(0.04938271604938272,0,0,0.04938271604938272,0,0)" xlink:href="#bn"/><use transform="matrix(0.04938271604938272,0,0,0.04938271604938272,11.851851851851853,0)" xlink:href="#bo"/><use transform="matrix(0.04938271604938272,0,0,0.04938271604938272,16.444444444444446,0)" xlink:href="#bo"/><use transform="matrix(0.04938271604938272,0,0,0.04938271604938272,21.38271604938272,0)" xlink:href="#aI"/><use transform="matrix(0.04938271604938272,0,0,0.04938271604938272,31.259259259259263,0)" xlink:href="#aF"/><use transform="matrix(0.04938271604938272,0,0,0.04938271604938272,36.19753086419753,0)" xlink:href="#aF"/><use transform="matrix(0.04938271604938272,0,0,0.04938271604938272,41.135802469135804,0)" xlink:href="#aA"/><use transform="matrix(0.04938271604938272,0,0,0.04938271604938272,51.01234567901235,0)" xlink:href="#aD"/></g><g id="V"><use transform="matrix(0.04938271604938272,0,0,0.04938271604938272,0,0)" xlink:href="#az"/><use transform="matrix(0.04938271604938272,0,0,0.04938271604938272,3.901234567901235,0)" xlink:href="#aC"/></g><path fill="#333" d="M210-169c-67 3-38 105-44 169h-31v-121c0-29-5-50-35-48C34-165 62-65 56 0H25l-1-190h30c1 10-1 24 2 32 10-44 99-50 107 0 11-21 27-35 58-36 85-2 47 119 55 194h-31v-121c0-29-5-49-35-48" id="bp"/><g id="W"><use transform="matrix(0.04938271604938272,0,0,0.04938271604938272,0,0)" xlink:href="#aO"/><use transform="matrix(0.04938271604938272,0,0,0.04938271604938272,9.876543209876544,0)" xlink:href="#aD"/><use transform="matrix(0.04938271604938272,0,0,0.04938271604938272,19.75308641975309,0)" xlink:href="#ay"/><use transform="matrix(0.04938271604938272,0,0,0.04938271604938272,29.629629629629633,0)" xlink:href="#aD"/><use transform="matrix(0.04938271604938272,0,0,0.04938271604938272,39.50617283950618,0)" xlink:href="#bp"/><use transform="matrix(0.04938271604938272,0,0,0.04938271604938272,54.27160493827161,0)" xlink:href="#aI"/><use transform="matrix(0.04938271604938272,0,0,0.04938271604938272,64.14814814814815,0)" xlink:href="#aB"/><use transform="matrix(0.04938271604938272,0,0,0.04938271604938272,74.0246913580247,0)" xlink:href="#aF"/><use transform="matrix(0.04938271604938272,0,0,0.04938271604938272,78.96296296296296,0)" xlink:href="#aK"/></g><use transform="matrix(0.04938271604938272,0,0,0.04938271604938272,0,0)" xlink:href="#aI" id="X"/><g id="Y"><use transform="matrix(0.04938271604938272,0,0,0.04938271604938272,0,0)" xlink:href="#bp"/><use transform="matrix(0.04938271604938272,0,0,0.04938271604938272,14.765432098765434,0)" xlink:href="#aI"/><use transform="matrix(0.04938271604938272,0,0,0.04938271604938272,24.641975308641978,0)" xlink:href="#aF"/><use transform="matrix(0.04938271604938272,0,0,0.04938271604938272,29.58024691358025,0)" xlink:href="#aF"/><use transform="matrix(0.04938271604938272,0,0,0.04938271604938272,34.51851851851852,0)" xlink:href="#az"/></g><use transform="matrix(0.04938271604938272,0,0,0.04938271604938272,0,0)" xlink:href="#aD" id="Z"/><path fill="#333" d="M136-208V0H84v-208H4v-40h212v40h-80" id="bq"/><path fill="#333" d="M135-150c-39-12-60 13-60 57V0H25l-1-190h47c2 13-1 29 3 40 6-28 27-53 61-41v41" id="br"/><path fill="#333" d="M85 4C-2 5 27-109 22-190h50c7 57-23 150 33 157 60-5 35-97 40-157h50l1 190h-47c-2-12 1-28-3-38-12 25-28 42-61 42" id="bs"/><path fill="#333" d="M185-48c-13 30-37 53-82 52C43 2 14-33 14-96s30-98 90-98c62 0 83 45 84 108H66c0 31 8 55 39 56 18 0 30-7 34-22zm-45-69c5-46-57-63-70-21-2 6-4 13-4 21h74" id="bt"/><g id="aa"><use transform="matrix(0.04938271604938272,0,0,0.04938271604938272,0,0)" xlink:href="#bq"/><use transform="matrix(0.04938271604938272,0,0,0.04938271604938272,9.82716049382716,0)" xlink:href="#br"/><use transform="matrix(0.04938271604938272,0,0,0.04938271604938272,16.74074074074074,0)" xlink:href="#bs"/><use transform="matrix(0.04938271604938272,0,0,0.04938271604938272,27.555555555555557,0)" xlink:href="#bt"/></g><g id="ab"><use transform="matrix(0.04938271604938272,0,0,0.04938271604938272,0,0)" xlink:href="#bo"/><use transform="matrix(0.04938271604938272,0,0,0.04938271604938272,4.938271604938272,0)" xlink:href="#aC"/><use transform="matrix(0.04938271604938272,0,0,0.04938271604938272,8.839506172839506,0)" xlink:href="#aD"/><use transform="matrix(0.04938271604938272,0,0,0.04938271604938272,18.71604938271605,0)" xlink:href="#ay"/></g><path fill="#333" d="M109-170H84l-4-78h32zm-65 0H19l-4-78h33" id="bu"/><g id="ac"><use transform="matrix(0.04938271604938272,0,0,0.04938271604938272,0,0)" xlink:href="#bu"/><use transform="matrix(0.04938271604938272,0,0,0.04938271604938272,6.271604938271605,0)" xlink:href="#aK"/><use transform="matrix(0.04938271604938272,0,0,0.04938271604938272,16.14814814814815,0)" xlink:href="#aM"/><use transform="matrix(0.04938271604938272,0,0,0.04938271604938272,22.024691358024693,0)" xlink:href="#aN"/><use transform="matrix(0.04938271604938272,0,0,0.04938271604938272,31.901234567901238,0)" xlink:href="#az"/><use transform="matrix(0.04938271604938272,0,0,0.04938271604938272,35.802469135802475,0)" xlink:href="#aB"/><use transform="matrix(0.04938271604938272,0,0,0.04938271604938272,45.67901234567902,0)" xlink:href="#aD"/><use transform="matrix(0.04938271604938272,0,0,0.04938271604938272,55.55555555555556,0)" xlink:href="#aF"/><use transform="matrix(0.04938271604938272,0,0,0.04938271604938272,60.49382716049383,0)" xlink:href="#aK"/><use transform="matrix(0.04938271604938272,0,0,0.04938271604938272,70.37037037037038,0)" xlink:href="#bu"/></g><g id="ad"><use transform="matrix(0.04938271604938272,0,0,0.04938271604938272,0,0)" xlink:href="#aN"/><use transform="matrix(0.04938271604938272,0,0,0.04938271604938272,9.876543209876544,0)" xlink:href="#aI"/><use transform="matrix(0.04938271604938272,0,0,0.04938271604938272,19.75308641975309,0)" xlink:href="#aC"/></g></defs></g></svg>